<svg xmlns="http://www.w3.org/2000/svg" xmlns:xlink="http://www.w3.org/1999/xlink" width="500" zoomAndPan="magnify" viewBox="0 0 375 374.999991" height="500" preserveAspectRatio="xMidYMid meet" version="1.0"><defs><clipPath id="56b46e223b"><path d="M 9.851562 37.5 L 365.351562 37.5 L 365.351562 342.75 L 9.851562 342.75 Z M 9.851562 37.5 " clip-rule="nonzero"/></clipPath><clipPath id="d2d7c0b0db"><path d="M 42.71875 66 L 71 66 L 71 111 L 42.71875 111 Z M 42.71875 66 " clip-rule="nonzero"/></clipPath><clipPath id="88686f0a5b"><path d="M 104 66 L 131.96875 66 L 131.96875 111 L 104 111 Z M 104 66 " clip-rule="nonzero"/></clipPath><clipPath id="854dcd902d"><path d="M 74 63 L 100 63 L 100 117.410156 L 74 117.410156 Z M 74 63 " clip-rule="nonzero"/></clipPath></defs><g clip-path="url(#56b46e223b)"><path fill="#ce0000" d="M 338.972656 63.890625 C 303.773438 28.746094 246.25 28.746094 211.140625 63.890625 L 187.644531 87.347656 L 164.148438 63.890625 C 128.949219 28.746094 71.425781 28.746094 36.316406 63.890625 C 2.199219 97.953125 1.207031 153.050781 33.257812 188.371094 L 115.988281 188.371094 L 128.050781 125.546875 C 128.589844 122.582031 131.113281 120.421875 134.171875 120.242188 C 137.234375 120.0625 139.933594 122.042969 140.742188 124.917969 L 170.179688 224.953125 L 186.207031 159.96875 C 186.925781 157.183594 189.355469 155.117188 192.238281 155.027344 C 195.117188 154.847656 197.726562 156.644531 198.71875 159.429688 L 211.230469 194.933594 L 234.277344 124.738281 C 235.179688 122.042969 237.789062 120.152344 240.667969 120.242188 C 243.550781 120.332031 246.070312 122.222656 246.789062 125.007812 L 264.34375 188.371094 L 342.035156 188.371094 C 374.171875 153.050781 373.09375 97.953125 338.972656 63.890625 Z M 253.003906 196.640625 L 239.859375 149.363281 L 217.535156 217.3125 C 216.632812 220.011719 214.203125 221.808594 211.410156 221.808594 L 211.320312 221.808594 C 208.53125 221.808594 206.101562 220.101562 205.109375 217.402344 L 193.496094 184.417969 L 176.933594 251.558594 C 176.214844 254.433594 173.691406 256.5 170.722656 256.5 L 170.542969 256.5 C 167.660156 256.5 165.050781 254.613281 164.238281 251.828125 L 135.703125 154.398438 L 127.691406 196.101562 C 127.058594 199.15625 124.359375 201.40625 121.300781 201.40625 L 46.039062 201.40625 L 59.722656 215.066406 L 187.554688 342.695312 L 315.386719 215.066406 L 329.070312 201.40625 L 259.214844 201.40625 C 256.332031 201.40625 253.8125 199.425781 253.003906 196.640625 Z M 253.003906 196.640625 " fill-opacity="1" fill-rule="nonzero"/></g><g clip-path="url(#d2d7c0b0db)"><path fill="#231f20" d="M 68.917969 104.105469 L 66.226562 101.585938 L 52.414062 88.605469 L 66.226562 75.632812 L 68.917969 73.109375 C 70.5 71.625 70.585938 69.117188 69.105469 67.527344 C 67.621094 65.9375 65.125 65.851562 63.542969 67.339844 L 43.964844 85.722656 C 43.171875 86.464844 42.71875 87.515625 42.71875 88.605469 C 42.71875 89.699219 43.171875 90.742188 43.964844 91.484375 L 63.542969 109.867188 C 64.300781 110.578125 65.265625 110.933594 66.226562 110.933594 C 67.28125 110.933594 68.324219 110.507812 69.097656 109.679688 C 70.585938 108.089844 70.5 105.59375 68.917969 104.105469 Z M 68.917969 104.105469 " fill-opacity="1" fill-rule="nonzero"/></g><g clip-path="url(#88686f0a5b)"><path fill="#231f20" d="M 130.722656 85.722656 L 111.144531 67.339844 C 109.5625 65.84375 107.066406 65.929688 105.582031 67.519531 C 104.101562 69.109375 104.179688 71.617188 105.769531 73.101562 L 108.460938 75.625 L 115.558594 82.292969 L 122.273438 88.605469 L 108.453125 101.578125 L 105.761719 104.097656 C 104.179688 105.585938 104.09375 108.089844 105.574219 109.679688 C 106.347656 110.507812 107.398438 110.933594 108.445312 110.933594 C 109.40625 110.933594 110.371094 110.578125 111.136719 109.867188 L 130.714844 91.484375 C 131.507812 90.742188 131.960938 89.691406 131.960938 88.605469 C 131.96875 87.507812 131.515625 86.464844 130.722656 85.722656 Z M 130.722656 85.722656 " fill-opacity="1" fill-rule="nonzero"/></g><g clip-path="url(#854dcd902d)"><path fill="#231f20" d="M 97.121094 63.433594 C 95.085938 62.675781 92.816406 63.714844 92.058594 65.757812 L 74.898438 112.066406 C 74.144531 114.109375 75.179688 116.386719 77.214844 117.148438 C 77.667969 117.320312 78.128906 117.398438 78.589844 117.398438 C 80.1875 117.398438 81.683594 116.410156 82.277344 114.824219 L 99.4375 68.507812 C 100.195312 66.464844 99.164062 64.195312 97.121094 63.433594 Z M 97.121094 63.433594 " fill-opacity="1" fill-rule="nonzero"/></g></svg>